HIERARCHY
ROOT hip
{
  OFFSET 0 0 0
  CHANNELS 6 Xposition Yposition Zposition Zrotation Yrotation Xrotation
  JOINT abdomen
  {
    OFFSET 0 20.6881 -0.73152
    CHANNELS 3 Zrotation Xrotation Yrotation
    JOINT chest
    {
      OFFSET 0 11.7043 -0.48768
      CHANNELS 3 Zrotation Xrotation Yrotation
      JOINT neck
      {
        OFFSET 0 22.1894 -2.19456
        CHANNELS 3 Zrotation Xrotation Yrotation
        JOINT head
        {
          OFFSET -0.24384 7.07133 1.2192
          CHANNELS 3 Zrotation Xrotation Yrotation
          JOINT leftEye
          {
            OFFSET 4.14528 8.04674 8.04672
            CHANNELS 3 Zrotation Xrotation Yrotation
            End Site
            {
              OFFSET 1 0 0
            }
          }
          JOINT rightEye
          {
            OFFSET -3.6576 8.04674 8.04672
            CHANNELS 3 Zrotation Xrotation Yrotation
            End Site
            {
              OFFSET 1 0 0
            }
          }
        }
      }
      JOINT rCollar
      {
        OFFSET -2.68224 19.2634 -4.8768
        CHANNELS 3 Zrotation Xrotation Yrotation
        JOINT rShldr
        {
          OFFSET -8.77824 -1.95073 1.46304
          CHANNELS 3 Zrotation Xrotation Yrotation
          JOINT rForeArm
          {
            OFFSET -28.1742 -1.7115 0.48768
            CHANNELS 3 Zrotation Xrotation Yrotation
            JOINT rHand
            {
              OFFSET -22.5879 0.773209 7.07136
              CHANNELS 3 Zrotation Xrotation Yrotation
              JOINT rThumb1
              {
                OFFSET -1.2192 -0.487915 3.41376
                CHANNELS 3 Zrotation Xrotation Yrotation
                JOINT rThumb2
                {
                  OFFSET -3.37035 -0.52449 3.41376
                  CHANNELS 3 Zrotation Xrotation Yrotation
                  End Site
                  {
                    OFFSET -1.78271 -1.18214 1.43049
                  }
                }
              }
              JOINT rIndex1
              {
                OFFSET -7.75947 0.938293 5.60832
                CHANNELS 3 Zrotation Xrotation Yrotation
                JOINT rIndex2
                {
                  OFFSET -2.54057 -0.884171 1.56538
                  CHANNELS 3 Zrotation Xrotation Yrotation
                  End Site
                  {
                    OFFSET -1.62519 -0.234802 1.16502
                  }
                }
              }
              JOINT rMid1
              {
                OFFSET -8.24714 1.18213 3.41376
                CHANNELS 3 Zrotation Xrotation Yrotation
                JOINT rMid2
                {
                  OFFSET -3.10165 -0.590103 1.0647
                  CHANNELS 3 Zrotation Xrotation Yrotation
                  End Site
                  {
                    OFFSET -2.48547 -0.328903 0.83742
                  }
                }
              }
              JOINT rRing1
              {
                OFFSET -8.82822 0.546677 1.51678
                CHANNELS 3 Zrotation Xrotation Yrotation
                JOINT rRing2
                {
                  OFFSET -2.60934 -0.819778 -0.0198488
                  CHANNELS 3 Zrotation Xrotation Yrotation
                  End Site
                  {
                    OFFSET -2.33842 -0.294052 0.168128
                  }
                }
              }
              JOINT rPinky1
              {
                OFFSET -8.27202 -0.0477905 -0.4584
                CHANNELS 3 Zrotation Xrotation Yrotation
                JOINT rPinky2
                {
                  OFFSET -1.82734 -0.647385 -0.700984
                  CHANNELS 3 Zrotation Xrotation Yrotation
                  End Site
                  {
                    OFFSET -1.69225 -0.51767 -0.607171
                  }
                }
              }
            }
          }
        }
      }
      JOINT lCollar
      {
        OFFSET 2.68224 19.2634 -4.8768
        CHANNELS 3 Zrotation Xrotation Yrotation
        JOINT lShldr
        {
          OFFSET 8.77824 -1.95073 1.46304
          CHANNELS 3 Zrotation Xrotation Yrotation
          JOINT lForeArm
          {
            OFFSET 28.1742 -1.7115 0.48768
            CHANNELS 3 Zrotation Xrotation Yrotation
            JOINT lHand
            {
              OFFSET 22.5879 0.773209 7.07136
              CHANNELS 3 Zrotation Xrotation Yrotation
              JOINT lThumb1
              {
                OFFSET 1.2192 -0.487915 3.41376
                CHANNELS 3 Zrotation Xrotation Yrotation
                JOINT lThumb2
                {
                  OFFSET 3.37035 -0.52449 3.41376
                  CHANNELS 3 Zrotation Xrotation Yrotation
                  End Site
                  {
                    OFFSET 1.78271 -1.18214 1.43049
                  }
                }
              }
              JOINT lIndex1
              {
                OFFSET 7.75947 0.938293 5.60832
                CHANNELS 3 Zrotation Xrotation Yrotation
                JOINT lIndex2
                {
                  OFFSET 2.54057 -0.884171 1.56538
                  CHANNELS 3 Zrotation Xrotation Yrotation
                  End Site
                  {
                    OFFSET 1.62519 -0.234802 1.16502
                  }
                }
              }
              JOINT lMid1
              {
                OFFSET 8.24714 1.18213 3.41376
                CHANNELS 3 Zrotation Xrotation Yrotation
                JOINT lMid2
                {
                  OFFSET 3.10165 -0.590103 1.0647
                  CHANNELS 3 Zrotation Xrotation Yrotation
                  End Site
                  {
                    OFFSET 2.48547 -0.328903 0.83742
                  }
                }
              }
              JOINT lRing1
              {
                OFFSET 8.82822 0.546677 1.51678
                CHANNELS 3 Zrotation Xrotation Yrotation
                JOINT lRing2
                {
                  OFFSET 2.60934 -0.819778 -0.0198488
                  CHANNELS 3 Zrotation Xrotation Yrotation
                  End Site
                  {
                    OFFSET 2.33842 -0.294052 0.168128
                  }
                }
              }
              JOINT lPinky1
              {
                OFFSET 8.27202 -0.0477905 -0.4584
                CHANNELS 3 Zrotation Xrotation Yrotation
                JOINT lPinky2
                {
                  OFFSET 1.82734 -0.647385 -0.700984
                  CHANNELS 3 Zrotation Xrotation Yrotation
                  End Site
                  {
                    OFFSET 1.69225 -0.51767 -0.607171
                  }
                }
              }
            }
          }
        }
      }
    }
  }
  JOINT rButtock
  {
    OFFSET -8.77824 4.35084 1.2192
    CHANNELS 3 Zrotation Xrotation Yrotation
    JOINT rThigh
    {
      OFFSET 0 -1.70687 -2.19456
      CHANNELS 3 Zrotation Xrotation Yrotation
      JOINT rShin
      {
        OFFSET 0 -36.8199 0.73152
        CHANNELS 3 Zrotation Xrotation Yrotation
        JOINT rFoot
        {
          OFFSET 0.73152 -45.1104 -5.12064
          CHANNELS 3 Zrotation Xrotation Yrotation
          End Site
          {
            OFFSET -1.1221 -3.69964 12.103
          }
        }
      }
    }
  }
  JOINT lButtock
  {
    OFFSET 8.77824 4.35084 1.2192
    CHANNELS 3 Zrotation Xrotation Yrotation
    JOINT lThigh
    {
      OFFSET 0 -1.70687 -2.19456
      CHANNELS 3 Zrotation Xrotation Yrotation
      JOINT lShin
      {
        OFFSET 0 -36.8199 0.73152
        CHANNELS 3 Zrotation Xrotation Yrotation
        JOINT lFoot
        {
          OFFSET -0.73152 -45.1104 -5.12064
          CHANNELS 3 Zrotation Xrotation Yrotation
          End Site
          {
            OFFSET 1.1221 -3.69964 12.103
          }
        }
      }
    }
  }
}
MOTION
Frames:	4
Frame Time:	0.00833333
-179.072 85.2982 8.49179 0.0 0.0 0.0 0.984363 -0.00436089 0.0272516 0.271547 -0.00455335 0.0470449 -4.36544e-15 1.59028e-15 -1.2424e-16 -1.27253e-14 9.54166e-15 -2.65564e-16 -0.0 0.0 0.0 -0.0 0.0 0.0 -2.18796e-15 1.20358e-17 4.96962e-17 -4.29851e-14 3.54085e-16 -3.97569e-16 -7.62737e-13 2.38542e-13 -1.27222e-14 -8.75129e-12 -1.81466e-13 -2.13097e-13 -2.06361e-11 1.23422e-13 -4.64361e-13 -3.56457e-11 2.16278e-13 -8.02295e-13 -2.06319e-11 1.24439e-13 -4.73903e-13 7.73091 5.47488 0.417314 -2.06373e-11 1.23147e-13 -4.6118e-13 2.90554 0.965183 0.102902 -2.06286e-11 1.23743e-13 -4.64361e-13 10.2786 0.731801 0.0259123 -2.06454e-11 1.25234e-13 -4.54819e-13 2.22167 -0.733487 -0.20892 -2.38424e-15 1.16475e-17 -1.49089e-16 -4.60919e-14 6.58474e-16 -1.98785e-15 -7.69346e-13 -2.18266e-13 9.54166e-15 -8.75081e-12 2.84212e-13 -2.16278e-13 -2.06438e-11 1.39305e-13 -4.6118e-13 -3.56409e-11 2.35361e-13 -7.96729e-13 -2.06486e-11 1.39944e-13 -4.48458e-13 -7.73091 5.47488 -0.417314 -2.06442e-11 1.39149e-13 -4.64361e-13 -2.90554 0.965183 -0.102902 -2.06508e-11 1.39944e-13 -4.60385e-13 -10.2786 0.731801 -0.0259123 -2.06394e-11 1.40342e-13 -4.70722e-13 -2.22167 -0.733487 0.20892 -2.03217e-16 0.0 -3.88251e-19 1.24872 -5.45299 -0.109159 6.99622e-05 4.32236 0.0238868 -0.510562 1.1295 0.0812206 2.03217e-16 0.0 3.88251e-19 0.249564 -1.91924 0.012925 0.00928443 -2.07855 0.0766912 0.496366 3.99654 -0.137961
-172.794 83.3318 0.777297 174.267 88.4116 179.039 0.085034 -1.85435 1.11456 1.13291 1.96119 0.326027 2.92704 1.19841 3.85408 -3.66934 2.33378 7.73415 -0.0 0.0 0.0 -0.0 0.0 0.0 -1.25605e-15 -4.14061e-14 2.19148e-14 21.8583 4.10486 0.467414 -3.6637 -1.5675 5.82356 0.00052417 -0.513127 -0.0721052 -3.3841e-10 -4.14776e-10 3.57662e-10 -5.86052e-10 -7.18683e-10 6.18844e-10 -3.38404e-10 -4.14775e-10 3.57654e-10 7.73091 5.47488 0.417314 -3.38409e-10 -4.14776e-10 3.57664e-10 2.90554 0.965183 0.102902 -3.38401e-10 -4.14776e-10 3.57664e-10 10.2786 0.731801 0.0259123 -3.38417e-10 -4.14774e-10 3.57673e-10 2.22167 -0.733487 -0.20892 -1.40976e-15 -4.14074e-14 2.17308e-14 -22.1408 3.11748 -2.69092 2.61267 -0.982954 -4.27575 -0.000140954 0.264739 -0.0372052 -1.2156e-10 5.11897e-10 -1.89309e-10 -2.10295e-10 8.87051e-10 -3.26658e-10 -1.21567e-10 5.11898e-10 -1.89294e-10 -7.73091 5.47488 -0.417314 -1.2156e-10 5.11896e-10 -1.89312e-10 -2.90554 0.965183 -0.102902 -1.21568e-10 5.11898e-10 -1.89307e-10 -10.2786 0.731801 -0.0259123 -1.21559e-10 5.11898e-10 -1.89315e-10 -2.22167 -0.733487 0.20892 -2.03217e-16 0.0 -3.88251e-19 -0.732833 -8.2609 1.41272 0.05488 11.9355 0.227869 -1.93646 -6.56442 -7.93575 2.03217e-16 0.0 3.88251e-19 -0.0342216 -6.14943 -0.768021 -0.0708482 8.01411 -0.165343 1.34076 -3.92497 5.08088
-172.831 83.312 0.856614 173.855 88.0656 178.8 -0.79511 -3.8074 2.25577 2.0266 4.039 0.618543 5.82303 2.4127 7.90712 -8.1934 4.69394 15.8973 -0.0 0.0 0.0 -0.0 0.0 0.0 6.90664e-17 -8.52118e-14 4.53695e-14 44.8945 8.44354 0.964904 -7.18492 -3.16578 11.9823 -0.000328758 -1.04711 -0.147161 -6.82871e-10 -8.60405e-10 7.58459e-10 -1.18266e-09 -1.49083e-09 1.31228e-09 -6.82864e-10 -8.60402e-10 7.58453e-10 7.73091 5.47488 0.417314 -6.82869e-10 -8.60404e-10 7.58461e-10 2.90554 0.965183 0.102902 -6.8286e-10 -8.60404e-10 7.58463e-10 10.2786 0.731801 0.0259123 -6.82877e-10 -8.60402e-10 7.58472e-10 2.22167 -0.733487 -0.20892 -3.79917e-17 -8.52139e-14 4.52018e-14 -45.2314 6.26956 -5.56943 5.22439 -2.00843 -8.81445 8.39775e-05 0.541485 -0.0761006 -2.24958e-10 1.06025e-09 -4.15041e-10 -3.89304e-10 1.8373e-09 -7.16228e-10 -2.24966e-10 1.06025e-09 -4.15025e-10 -7.73091 5.47488 -0.417314 -2.24957e-10 1.06025e-09 -4.15045e-10 -2.90554 0.965183 -0.102902 -2.24965e-10 1.06025e-09 -4.15039e-10 -10.2786 0.731801 -0.0259123 -2.24959e-10 1.06025e-09 -4.15044e-10 -2.22167 -0.733487 0.20892 -2.03217e-16 0.0 -3.88251e-19 -2.67318 -11.2228 3.03293 0.049982 19.9799 0.460483 -5.80434 -14.1914 -16.8184 2.03217e-16 0.0 3.88251e-19 -0.464976 -10.6181 -1.6062 -0.0587773 18.6848 -0.44116 3.82326 -12.1292 10.8113
-172.836 83.3028 0.902964 168.404 87.7015 173.434 -1.50226 -5.5462 3.30291 2.79795 5.89206 0.888111 8.30032 3.53021 11.582 -12.8509 6.49244 23.3416 -0.0 0.0 0.0 -0.0 0.0 0.0 6.07768e-16 -1.24242e-13 6.56451e-14 65.3699 12.3113 1.43157 -10.0491 -4.50853 17.5201 -0.00230321 -1.53937 -0.216385 -9.73957e-10 -1.24458e-09 1.07391e-09 -1.68687e-09 -2.15648e-09 1.85814e-09 -9.7395e-10 -1.24457e-09 1.07391e-09 7.73091 5.47488 0.417314 -9.73954e-10 -1.24458e-09 1.07391e-09 2.90554 0.965183 0.102902 -9.73944e-10 -1.24458e-09 1.07392e-09 10.2786 0.731801 0.0259123 -9.73962e-10 -1.24457e-09 1.07393e-09 2.22167 -0.733487 -0.20892 5.39183e-16 -1.24245e-13 6.54906e-14 -65.5374 9.26943 -8.16818 7.40149 -2.88325 -12.8419 0.000608674 0.794214 -0.111625 -3.23394e-10 1.53541e-09 -5.67004e-10 -5.59603e-10 2.66068e-09 -9.7838e-10 -3.23404e-10 1.53541e-09 -5.66987e-10 -7.73091 5.47488 -0.417314 -3.23393e-10 1.53541e-09 -5.67008e-10 -2.90554 0.965183 -0.102902 -3.23401e-10 1.53541e-09 -5.67001e-10 -10.2786 0.731801 -0.0259123 -3.23398e-10 1.53541e-09 -5.67003e-10 -2.22167 -0.733487 0.20892 -2.03217e-16 0.0 -3.88251e-19 -4.23651 -13.8422 4.54372 -0.016441 27.1602 0.69818 -11.3818 -20.1698 -25.4754 2.03217e-16 0.0 3.88251e-19 -0.957845 -14.5993 -2.39398 0.0508364 28.1976 -0.731254 7.4964 -19.067 16.4054
